<svg width="10" height="12" viewBox="0 0 10 12" fill="none" xmlns="http://www.w3.org/2000/svg">
    <path d="M2.2395 12V0.575999H5.2475C6.64483 0.575999 7.6795 0.858666 8.3515 1.424C9.03417 1.98933 9.3755 2.81067 9.3755 3.888C9.3755 4.61333 9.21017 5.23733 8.8795 5.76C8.54883 6.272 8.05817 6.66667 7.4075 6.944C6.7675 7.22133 5.97283 7.36 5.0235 7.36H3.6795V12H2.2395ZM0.8475 9.824V8.784H6.3195V9.824H0.8475ZM0.8475 7.36V6.144H4.5115V7.36H0.8475ZM4.8155 6.144C5.46617 6.144 6.0155 6.07467 6.4635 5.936C6.92217 5.79733 7.27417 5.568 7.5195 5.248C7.76483 4.928 7.8875 4.49067 7.8875 3.936C7.8875 3.21067 7.6635 2.672 7.2155 2.32C6.7675 1.968 6.06883 1.792 5.1195 1.792H3.6795V6.144H4.8155Z" fill="black"/>
</svg>

