<svg width="13" height="12" viewBox="0 0 13 12" fill="#C90606" xmlns="http://www.w3.org/2000/svg">
<path d="M11.6323 4.20807L8.42361 3.73512L6.98946 0.795268C6.7325 0.271246 5.98796 0.264585 5.7288 0.795268L4.29465 3.73512L1.08592 4.20807C0.510496 4.29244 0.279889 5.00964 0.697178 5.42042L3.01862 7.70746L2.46956 10.9382C2.37073 11.5222 2.97909 11.9596 3.48862 11.6865L6.35913 10.161L9.22964 11.6865C9.73917 11.9574 10.3475 11.5222 10.2487 10.9382L9.69964 7.70746L12.0211 5.42042C12.4384 5.00964 12.2078 4.29244 11.6323 4.20807ZM8.56857 7.33443L9.08908 10.4075L6.35913 8.95756L3.62918 10.4075L4.1497 7.33443L1.94026 5.15841L4.99306 4.70988L6.35913 1.91214L7.7252 4.70988L10.778 5.15841L8.56857 7.33443Z"/>
</svg>
