<svg width="11" height="11" viewBox="0 0 11 11" fill="#C90606" xmlns="http://www.w3.org/2000/svg">
<path d="M10.0902 4.13787L6.97643 3.70544L5.58449 1.00895C5.54647 0.935124 5.48393 0.875359 5.40667 0.83903C5.2129 0.747624 4.97743 0.823796 4.88055 1.00895L3.48861 3.70544L0.374826 4.13787C0.28898 4.14959 0.210491 4.18826 0.150399 4.24685C0.07775 4.3182 0.0377173 4.4142 0.039097 4.51374C0.0404768 4.61328 0.0831561 4.70822 0.157757 4.77771L2.41062 6.87654L1.87837 9.84022C1.86589 9.90917 1.87387 9.98007 1.90142 10.0449C1.92896 10.1097 1.97496 10.1659 2.0342 10.207C2.09345 10.2481 2.16356 10.2725 2.23659 10.2775C2.30963 10.2825 2.38266 10.2678 2.44741 10.2351L5.23252 8.83593L8.01763 10.2351C8.09367 10.2738 8.18197 10.2867 8.26659 10.2726C8.47998 10.2375 8.62346 10.0441 8.58667 9.84022L8.05442 6.87654L10.3073 4.77771C10.3686 4.72029 10.4091 4.64529 10.4213 4.56326C10.4544 4.35818 10.3048 4.16834 10.0902 4.13787Z"/>
</svg>
