<svg width="10" height="12" viewBox="0 0 10 12" fill="none" xmlns="http://www.w3.org/2000/svg">
<path d="M1.84625 12V0.575999H5.49425C6.96625 0.575999 8.03825 0.874666 8.71025 1.472C9.39292 2.06933 9.73425 2.89067 9.73425 3.936C9.73425 4.55467 9.59558 5.136 9.31825 5.68C9.04092 6.224 8.57692 6.66133 7.92625 6.992C7.28625 7.32267 6.41158 7.488 5.30225 7.488H4.26225V12H1.84625ZM0.56625 10.288V8.736H6.72625V10.288H0.56625ZM0.56625 7.488V5.504H5.25425V7.488H0.56625ZM5.06225 5.504C5.52092 5.504 5.91558 5.456 6.24625 5.36C6.57692 5.25333 6.83292 5.088 7.01425 4.864C7.19558 4.64 7.28625 4.35733 7.28625 4.016C7.28625 3.52533 7.13158 3.16267 6.82225 2.928C6.51292 2.68267 6.02758 2.56 5.36625 2.56H4.26225V5.504H5.06225Z" fill="#777676"/>
</svg>
